<svg width="32" height="32" viewBox="0 0 32 32" fill="none" xmlns="http://www.w3.org/2000/svg">
<path fill-rule="evenodd" clip-rule="evenodd" d="M9.8787 18.9946L7.83203 9.33325H24.6667C25.5347 9.33325 26.1707 10.1479 25.96 10.9906L24.1627 18.1799C23.8894 19.2719 22.9614 20.0746 21.8414 20.1866L12.7534 21.0959C11.3987 21.2306 10.16 20.3253 9.8787 18.9946Z" stroke="#333333" stroke-width="1.5" stroke-linecap="round" stroke-linejoin="round"/>
<path d="M7.83233 9.3335L6.96566 5.3335H4.66699" stroke="#333333" stroke-width="1.5" stroke-linecap="round" stroke-linejoin="round"/>
<path d="M22.8115 25.6893C22.5421 25.6893 22.3235 25.908 22.3261 26.1773C22.3261 26.4466 22.5448 26.6653 22.8141 26.6653C23.0835 26.6653 23.3021 26.4466 23.3021 26.1773C23.3008 25.908 23.0821 25.6893 22.8115 25.6893" stroke="#333333" stroke-width="1.5" stroke-linecap="round" stroke-linejoin="round"/>
<path d="M11.5963 25.6891C11.327 25.6891 11.1083 25.9078 11.111 26.1771C11.1083 26.4478 11.3283 26.6664 11.5977 26.6664C11.867 26.6664 12.0857 26.4478 12.0857 26.1784C12.0857 25.9078 11.867 25.6891 11.5963 25.6891" stroke="#333333" stroke-width="1.5" stroke-linecap="round" stroke-linejoin="round"/>
</svg>
