<svg width="24" height="25" viewBox="0 0 24 25" fill="none" xmlns="http://www.w3.org/2000/svg">
<path fill-rule="evenodd" clip-rule="evenodd" d="M7.40854 15.0004L5.87354 7.75439H18.4995C19.1505 7.75439 19.6275 8.36539 19.4695 8.99739L18.1215 14.3894C17.9165 15.2084 17.2205 15.8104 16.3805 15.8944L9.56454 16.5764C8.54854 16.6774 7.61954 15.9984 7.40854 15.0004Z" stroke="white" stroke-width="1.5" stroke-linecap="round" stroke-linejoin="round"/>
<path d="M5.87351 7.75439L5.22351 4.75439H3.49951" stroke="white" stroke-width="1.5" stroke-linecap="round" stroke-linejoin="round"/>
<path d="M17.1098 20.0222C16.9078 20.0222 16.7438 20.1862 16.7458 20.3882C16.7458 20.5902 16.9098 20.7542 17.1118 20.7542C17.3138 20.7542 17.4778 20.5902 17.4778 20.3882C17.4768 20.1862 17.3128 20.0222 17.1098 20.0222" stroke="white" stroke-width="1.5" stroke-linecap="round" stroke-linejoin="round"/>
<path d="M8.69773 20.0217C8.49573 20.0217 8.33173 20.1857 8.33373 20.3877C8.33173 20.5907 8.49673 20.7547 8.69873 20.7547C8.90073 20.7547 9.06473 20.5907 9.06473 20.3887C9.06473 20.1857 8.90073 20.0217 8.69773 20.0217" stroke="white" stroke-width="1.5" stroke-linecap="round" stroke-linejoin="round"/>
</svg>
