<svg width="32" height="32" viewBox="0 0 32 32" fill="none" xmlns="http://www.w3.org/2000/svg">
<path d="M27.7233 12.6981C28.7767 13.7514 28.7767 15.4593 27.7233 16.5127C26.6699 17.566 24.9621 17.566 23.9087 16.5127C22.8553 15.4593 22.8553 13.7514 23.9087 12.6981C24.9621 11.6447 26.6699 11.6447 27.7233 12.6981" stroke="#333333" stroke-width="1.5" stroke-linecap="round" stroke-linejoin="round"/>
<path d="M18.9369 7.88317C20.5588 9.50514 20.5588 12.1349 18.9369 13.7569C17.3149 15.3788 14.6851 15.3788 13.0632 13.7569C11.4412 12.1349 11.4412 9.50515 13.0632 7.88317C14.6851 6.26119 17.3149 6.26119 18.9369 7.88317" stroke="#333333" stroke-width="1.5" stroke-linecap="round" stroke-linejoin="round"/>
<path d="M8.09145 12.6981C9.14482 13.7514 9.14482 15.4593 8.09145 16.5127C7.03807 17.566 5.33022 17.566 4.27685 16.5127C3.22347 15.4593 3.22347 13.7514 4.27685 12.6981C5.33022 11.6447 7.03807 11.6447 8.09145 12.6981" stroke="#333333" stroke-width="1.5" stroke-linecap="round" stroke-linejoin="round"/>
<path d="M30.667 25.3334V23.872C30.667 22.0307 29.175 20.5387 27.3336 20.5387H26.2656" stroke="#333333" stroke-width="1.5" stroke-linecap="round" stroke-linejoin="round"/>
<path d="M1.3335 25.3334V23.872C1.3335 22.0307 2.8255 20.5387 4.66683 20.5387H5.73483" stroke="#333333" stroke-width="1.5" stroke-linecap="round" stroke-linejoin="round"/>
<path d="M23.119 25.3334V23.1987C23.119 20.6214 21.0297 18.532 18.4524 18.532H13.547C10.9697 18.532 8.88037 20.6214 8.88037 23.1987V25.3334" stroke="#333333" stroke-width="1.5" stroke-linecap="round" stroke-linejoin="round"/>
</svg>
